<svg xmlns="http://www.w3.org/2000/svg" viewBox="0 0 1305.71 919.93"><defs><style>.cls-1{fill:aqua;}.cls-2{fill:#ff0;}.cls-3{fill:#f0f;}.cls-4{fill:#f16e00;}.cls-5{fill:#333;}.cls-6{fill:lime;}</style></defs><g id="Layer_1" data-name="Layer 1"><path class="cls-1" d="M782.33,427.71,92.81,29.62C69,15.87,39.23,33.06,39.23,60.55v796.2c0,27.49,29.77,44.68,53.58,30.93l689.52-398.1C806.15,475.84,806.15,441.46,782.33,427.71Z"/><path class="cls-2" d="M1007.19,428.11,317.66,30C293.85,16.27,264.08,33.45,264.08,61V857.14c0,27.5,29.77,44.69,53.58,30.94L1007.19,490C1031,476.23,1031,441.86,1007.19,428.11Z"/><path class="cls-3" d="M1271.53,429,582,30.93c-23.81-13.74-53.58,3.44-53.58,30.94V858.06c0,27.5,29.77,44.69,53.58,30.94l689.52-398.1C1295.35,477.15,1295.35,442.78,1271.53,429Z"/><path class="cls-4" d="M1012.42,430l-484-277.06V766.38l484-277C1035.37,476.19,1035.37,443.09,1012.42,430Z"/><path class="cls-5" d="M781.26,428.73,528,282.51V634.18L781.26,488C804.06,474.8,804.06,441.89,781.26,428.73Z"/><polygon class="cls-6" points="262.45 128.5 528.01 283.33 528.01 635 262.45 788.8 262.45 128.5"/></g></svg>